<svg xmlns="http://www.w3.org/2000/svg" height="20" width="94">
    <!-- SONARQUBE MEASURE -->
    <linearGradient id="b" x2="0" y2="100%">
        <stop offset="0" stop-color="#bbb" stop-opacity=".1"/>
        <stop offset="1" stop-opacity=".1"/>
    </linearGradient>
    <clipPath id="a">
        <rect width="94" height="20" rx="3" fill="#fff"/>
    </clipPath>
    <g clip-path="url(#a)">
        <rect fill="#555" height="20" width="75"/>
        <rect fill="#00aa00" height="20" width="19" x="75"/>
        <rect fill="url(#b)" height="20" width="94"/>
    </g>
    <g fill="#fff" font-family="DejaVu Sans,Verdana,Geneva,sans-serif" font-size="11" text-anchor="left">
        <text x="26" y="15" textLength="43" fill="#010101" fill-opacity=".3">security</text>
        <text x="26" y="14" textLength="43">security</text>
        <text x="81" y="15" textLength="7" fill="#010101" fill-opacity=".3">A</text>
        <text x="81" y="14" textLength="7">A</text>
    </g>
    <g fill="#4e9bcd">
        <path d="M17.975 16.758h-.815c0-6.557-5.411-11.893-12.062-11.893v-.813c7.102 0 12.877 5.7 12.877 12.706z"/>
        <path d="M18.538 12.386c-.978-4.116-4.311-7.55-8.49-8.748l.186-.65c4.411 1.266 7.93 4.895 8.964 9.243zm.626-3.856a12.48 12.48 0 0 0-4.832-5.399l.282-.464a13.031 13.031 0 0 1 5.044 5.63z"/>
    </g>
</svg>